<svg xmlns="http://www.w3.org/2000/svg" display="none">

    <symbol id="facebook" viewBox="0 0 24 24">
        <path d="m2.707 24h8.804c.414 0 .75-.336.75-.75 0-.16-.01-6.84-.011-7 0-.414-.336-.75-.75-.75h-2.25v-2.5h2.25c.414 0 .75-.336.75-.75v-2.817c0-2.444 1.989-4.433 4.433-4.433h2.067v2.5h-1.25c-.965 0-1.75.785-1.75 1.75v3c0 .414.336.75.75.75h3.04l-.625 2.5h-2.415c-.414 0-.75.336-.75.75v7c0 .414.336.75.75.75h4.793c1.493 0 2.707-1.214 2.707-2.707v-18.586c0-1.493-1.214-2.707-2.707-2.707h-18.586c-1.493 0-2.707 1.214-2.707 2.707v18.587c0 1.492 1.214 2.706 2.707 2.706zm-1.207-21.293c0-.666.541-1.207 1.207-1.207h18.587c.666 0 1.207.541 1.207 1.207v18.587c0 .666-.541 1.207-1.207 1.207h-4.044v-5.501h2.25c.344 0 .644-.234.728-.568l1-4c.118-.473-.239-.932-.728-.932h-3.25v-2.25c0-.136.114-.25.25-.25h2c.414 0 .75-.336.75-.75v-4c0-.414-.336-.75-.75-.75h-2.817c-3.271 0-5.933 2.662-5.933 5.933v2.067h-2.25c-.414 0-.75.336-.75.75v4c0 .414.336.75.75.75h2.25v5.5h-8.043c-.666 0-1.207-.541-1.207-1.207z"/>
    </symbol>

    <symbol id="youtube" viewBox="0 -62 512.00199 512">
        <path d="m334.808594 170.992188-113.113282-61.890626c-6.503906-3.558593-14.191406-3.425781-20.566406.351563-6.378906 3.78125-10.183594 10.460937-10.183594 17.875v122.71875c0 7.378906 3.78125 14.046875 10.117188 17.832031 3.308594 1.976563 6.976562 2.96875 10.652344 2.96875 3.367187 0 6.742187-.832031 9.847656-2.503906l113.117188-60.824219c6.714843-3.613281 10.90625-10.59375 10.9375-18.222656.027343-7.628906-4.113282-14.640625-10.808594-18.304687zm-113.859375 63.617187v-91.71875l84.539062 46.257813zm0 0"/>
        <path d="m508.234375 91.527344-.023437-.234375c-.433594-4.121094-4.75-40.777344-22.570313-59.421875-20.597656-21.929688-43.949219-24.59375-55.179687-25.871094-.929688-.105469-1.78125-.203125-2.542969-.304688l-.894531-.09375c-67.6875-4.921874-169.910157-5.5937495-170.933594-5.59765575l-.089844-.00390625-.089844.00390625c-1.023437.00390625-103.246094.67578175-171.542968 5.59765575l-.902344.09375c-.726563.097657-1.527344.1875-2.398438.289063-11.101562 1.28125-34.203125 3.949219-54.859375 26.671875-16.972656 18.445312-21.878906 54.316406-22.382812 58.347656l-.058594.523438c-.152344 1.714844-3.765625 42.539062-3.765625 83.523437v38.3125c0 40.984375 3.613281 81.808594 3.765625 83.527344l.027344.257813c.433593 4.054687 4.746093 40.039062 22.484375 58.691406 19.367187 21.195312 43.855468 24 57.027344 25.507812 2.082031.238282 3.875.441406 5.097656.65625l1.183594.164063c39.082031 3.71875 161.617187 5.550781 166.8125 5.625l.15625.003906.15625-.003906c1.023437-.003907 103.242187-.675781 170.929687-5.597657l.894531-.09375c.855469-.113281 1.816406-.214843 2.871094-.324218 11.039062-1.171875 34.015625-3.605469 54.386719-26.019532 16.972656-18.449218 21.882812-54.320312 22.382812-58.347656l.058594-.523437c.152344-1.71875 3.769531-42.539063 3.769531-83.523438v-38.3125c-.003906-40.984375-3.617187-81.804687-3.769531-83.523437zm-26.238281 121.835937c0 37.933594-3.3125 77-3.625 80.585938-1.273438 9.878906-6.449219 32.574219-14.71875 41.5625-12.75 14.027343-25.847656 15.417969-35.410156 16.429687-1.15625.121094-2.226563.238282-3.195313.359375-65.46875 4.734375-163.832031 5.460938-168.363281 5.488281-5.082032-.074218-125.824219-1.921874-163.714844-5.441406-1.941406-.316406-4.039062-.558594-6.25-.808594-11.214844-1.285156-26.566406-3.042968-38.371094-16.027343l-.277344-.296875c-8.125-8.464844-13.152343-29.6875-14.429687-41.148438-.238281-2.710937-3.636719-42.238281-3.636719-80.703125v-38.3125c0-37.890625 3.304688-76.914062 3.625-80.574219 1.519532-11.636718 6.792969-32.957031 14.71875-41.574218 13.140625-14.453125 26.996094-16.054688 36.160156-17.113282.875-.101562 1.691407-.195312 2.445313-.292968 66.421875-4.757813 165.492187-5.464844 169.046875-5.492188 3.554688.023438 102.589844.734375 168.421875 5.492188.808594.101562 1.691406.203125 2.640625.3125 9.425781 1.074218 23.671875 2.699218 36.746094 16.644531l.121094.128906c8.125 8.464844 13.152343 30.058594 14.429687 41.75.226563 2.558594 3.636719 42.171875 3.636719 80.71875zm0 0"/>
    </symbol>

    <symbol id="instagram" viewBox="0 0 24 24">
        <path d="m4.75 24h14.5c2.619 0 4.75-2.131 4.75-4.75v-14.5c0-2.619-2.131-4.75-4.75-4.75h-14.5c-2.619 0-4.75 2.131-4.75 4.75v14.5c0 2.619 2.131 4.75 4.75 4.75zm-3.25-19.25c0-1.792 1.458-3.25 3.25-3.25h14.5c1.792 0 3.25 1.458 3.25 3.25v14.5c0 1.792-1.458 3.25-3.25 3.25h-14.5c-1.792 0-3.25-1.458-3.25-3.25z"/>
        <path d="m12 18.13c3.38 0 6.13-2.75 6.13-6.13s-2.75-6.13-6.13-6.13-6.13 2.75-6.13 6.13 2.75 6.13 6.13 6.13zm0-10.76c2.553 0 4.63 2.077 4.63 4.63s-2.077 4.63-4.63 4.63-4.63-2.077-4.63-4.63 2.077-4.63 4.63-4.63z"/>
        <path d="m18.358 7.362c.986 0 1.729-.74 1.729-1.721 0-1.023-.782-1.721-1.728-1.721-.986 0-1.729.74-1.729 1.721 0 1.021.778 1.721 1.728 1.721zm.177-1.886c.316.279-.405.618-.405.166 0-.27.367-.2.405-.166z"/>
    </symbol>

    <symbol id="arrow-right" viewBox="0 0 512 512">
        <g>
            <g>
                <path d="M506.134,241.843c-0.006-0.006-0.011-0.013-0.018-0.019l-104.504-104c-7.829-7.791-20.492-7.762-28.285,0.068
			c-7.792,7.829-7.762,20.492,0.067,28.284L443.558,236H20c-11.046,0-20,8.954-20,20c0,11.046,8.954,20,20,20h423.557
			l-70.162,69.824c-7.829,7.792-7.859,20.455-0.067,28.284c7.793,7.831,20.457,7.858,28.285,0.068l104.504-104
			c0.006-0.006,0.011-0.013,0.018-0.019C513.968,262.339,513.943,249.635,506.134,241.843z"/>
            </g>
        </g>
    </symbol>

    <symbol id="next" viewBox="0 0 512.002 512.002">
        <g>
            <g>
                <path d="M388.425,241.951L151.609,5.79c-7.759-7.733-20.321-7.72-28.067,0.04c-7.74,7.759-7.72,20.328,0.04,28.067l222.72,222.105
			L123.574,478.106c-7.759,7.74-7.779,20.301-0.04,28.061c3.883,3.89,8.97,5.835,14.057,5.835c5.074,0,10.141-1.932,14.017-5.795
			l236.817-236.155c3.737-3.718,5.834-8.778,5.834-14.05S392.156,245.676,388.425,241.951z"/>
            </g>
        </g>
    </symbol>

    <symbol id="prev" viewBox="0 0 443.52 443.52">
        <g>
            <g>
                <path d="M143.492,221.863L336.226,29.129c6.663-6.664,6.663-17.468,0-24.132c-6.665-6.662-17.468-6.662-24.132,0l-204.8,204.8
			c-6.662,6.664-6.662,17.468,0,24.132l204.8,204.8c6.78,6.548,17.584,6.36,24.132-0.42c6.387-6.614,6.387-17.099,0-23.712
			L143.492,221.863z"/>
            </g>
        </g>
    </symbol>


</svg>